<?xml version="1.0" encoding="UTF-8"?>
<!--Generator: Apple Native CoreSVG 149-->
<!DOCTYPE svg
PUBLIC "-//W3C//DTD SVG 1.1//EN"
       "http://www.w3.org/Graphics/SVG/1.1/DTD/svg11.dtd">
<svg version="1.1" xmlns="http://www.w3.org/2000/svg" xmlns:xlink="http://www.w3.org/1999/xlink" width="3300" height="2200">
 <!--glyph: "uni1007D6.medium", point size: 100.000000, font version: "Version 16.0d18e1", template writer version: "8"-->
 <g id="Notes">
  <rect height="2200" id="artboard" style="fill:white;opacity:1" width="3300" x="0" y="0"/>
  <line id="" style="fill:none;stroke:black;opacity:1;stroke-width:0.5;" x1="263" x2="3036" y1="292" y2="292"/>
  <text style="stroke:none;fill:black;font-family:-apple-system,&quot;SF Pro Display&quot;,&quot;SF Pro Text&quot;,Helvetica,sans-serif;font-weight:bold;" transform="matrix(1 0 0 1 263 322)">Weight/Scale Variations</text>
  <text style="stroke:none;fill:black;font-family:-apple-system,&quot;SF Pro Display&quot;,&quot;SF Pro Text&quot;,Helvetica,sans-serif;text-anchor:middle;" transform="matrix(1 0 0 1 559.711 322)">Ultralight</text>
  <text style="stroke:none;fill:black;font-family:-apple-system,&quot;SF Pro Display&quot;,&quot;SF Pro Text&quot;,Helvetica,sans-serif;text-anchor:middle;" transform="matrix(1 0 0 1 856.422 322)">Thin</text>
  <text style="stroke:none;fill:black;font-family:-apple-system,&quot;SF Pro Display&quot;,&quot;SF Pro Text&quot;,Helvetica,sans-serif;text-anchor:middle;" transform="matrix(1 0 0 1 1153.13 322)">Light</text>
  <text style="stroke:none;fill:black;font-family:-apple-system,&quot;SF Pro Display&quot;,&quot;SF Pro Text&quot;,Helvetica,sans-serif;text-anchor:middle;" transform="matrix(1 0 0 1 1449.84 322)">Regular</text>
  <text style="stroke:none;fill:black;font-family:-apple-system,&quot;SF Pro Display&quot;,&quot;SF Pro Text&quot;,Helvetica,sans-serif;text-anchor:middle;" transform="matrix(1 0 0 1 1746.56 322)">Medium</text>
  <text style="stroke:none;fill:black;font-family:-apple-system,&quot;SF Pro Display&quot;,&quot;SF Pro Text&quot;,Helvetica,sans-serif;text-anchor:middle;" transform="matrix(1 0 0 1 2043.27 322)">Semibold</text>
  <text style="stroke:none;fill:black;font-family:-apple-system,&quot;SF Pro Display&quot;,&quot;SF Pro Text&quot;,Helvetica,sans-serif;text-anchor:middle;" transform="matrix(1 0 0 1 2339.98 322)">Bold</text>
  <text style="stroke:none;fill:black;font-family:-apple-system,&quot;SF Pro Display&quot;,&quot;SF Pro Text&quot;,Helvetica,sans-serif;text-anchor:middle;" transform="matrix(1 0 0 1 2636.69 322)">Heavy</text>
  <text style="stroke:none;fill:black;font-family:-apple-system,&quot;SF Pro Display&quot;,&quot;SF Pro Text&quot;,Helvetica,sans-serif;text-anchor:middle;" transform="matrix(1 0 0 1 2933.4 322)">Black</text>
  <line id="" style="fill:none;stroke:black;opacity:1;stroke-width:0.5;" x1="263" x2="3036" y1="1903" y2="1903"/>
  <g id="" transform="matrix(1 0 0 1 263 1933)">
   <path d="M9.24805 0.830078C13.5547 0.830078 17.1387-2.74414 17.1387-7.05078C17.1387-11.3574 13.5449-14.9316 9.23828-14.9316C4.94141-14.9316 1.36719-11.3574 1.36719-7.05078C1.36719-2.74414 4.95117 0.830078 9.24805 0.830078ZM9.24805-0.654297C5.70312-0.654297 2.87109-3.49609 2.87109-7.05078C2.87109-10.6055 5.69336-13.4473 9.23828-13.4473C12.793-13.4473 15.6348-10.6055 15.6445-7.05078C15.6543-3.49609 12.8027-0.654297 9.24805-0.654297ZM6.39648-6.31836L8.50586-6.31836L8.50586-4.19922C8.50586-3.75977 8.79883-3.45703 9.22852-3.45703C9.67773-3.45703 9.9707-3.75977 9.9707-4.19922L9.9707-6.31836L12.0996-6.31836C12.5391-6.31836 12.8418-6.61133 12.8418-7.04102C12.8418-7.48047 12.5391-7.7832 12.0996-7.7832L9.9707-7.7832L9.9707-9.89258C9.9707-10.3418 9.67773-10.6445 9.22852-10.6445C8.79883-10.6445 8.50586-10.3418 8.50586-9.89258L8.50586-7.7832L6.39648-7.7832C5.94727-7.7832 5.64453-7.48047 5.64453-7.04102C5.64453-6.61133 5.94727-6.31836 6.39648-6.31836Z"/>
  </g>
  <g id="" transform="matrix(1 0 0 1 281.506 1933)">
   <path d="M11.709 2.91016C17.1582 2.91016 21.6699-1.61133 21.6699-7.05078C21.6699-12.5 17.1484-17.0117 11.6992-17.0117C6.25977-17.0117 1.74805-12.5 1.74805-7.05078C1.74805-1.61133 6.26953 2.91016 11.709 2.91016ZM11.709 1.25C7.09961 1.25 3.41797-2.44141 3.41797-7.05078C3.41797-11.6602 7.08984-15.3516 11.6992-15.3516C16.3086-15.3516 20-11.6602 20.0098-7.05078C20.0195-2.44141 16.3184 1.25 11.709 1.25ZM7.98828-6.23047L10.8789-6.23047L10.8789-3.32031C10.8789-2.83203 11.2109-2.5 11.6895-2.5C12.1777-2.5 12.5195-2.83203 12.5195-3.32031L12.5195-6.23047L15.4297-6.23047C15.918-6.23047 16.25-6.5625 16.25-7.04102C16.25-7.5293 15.918-7.87109 15.4297-7.87109L12.5195-7.87109L12.5195-10.7617C12.5195-11.2695 12.1777-11.6016 11.6895-11.6016C11.2109-11.6016 10.8789-11.2598 10.8789-10.7617L10.8789-7.87109L7.98828-7.87109C7.48047-7.87109 7.14844-7.5293 7.14844-7.04102C7.14844-6.5625 7.49023-6.23047 7.98828-6.23047Z"/>
  </g>
  <g id="" transform="matrix(1 0 0 1 304.924 1933)">
   <path d="M14.9707 5.66406C21.9336 5.66406 27.6953-0.0976562 27.6953-7.05078C27.6953-14.0137 21.9238-19.7754 14.9609-19.7754C8.00781-19.7754 2.25586-14.0137 2.25586-7.05078C2.25586-0.0976562 8.01758 5.66406 14.9707 5.66406ZM14.9707 3.84766C8.93555 3.84766 4.08203-1.01562 4.08203-7.05078C4.08203-13.0957 8.92578-17.9492 14.9609-17.9492C21.0059-17.9492 25.8594-13.0957 25.8691-7.05078C25.8789-1.01562 21.0156 3.84766 14.9707 3.84766ZM10.0586-6.14258L14.0625-6.14258L14.0625-2.12891C14.0625-1.5918 14.4336-1.2207 14.9512-1.2207C15.4883-1.2207 15.8594-1.5918 15.8594-2.12891L15.8594-6.14258L19.8828-6.14258C20.4102-6.14258 20.791-6.51367 20.791-7.03125C20.791-7.56836 20.4199-7.94922 19.8828-7.94922L15.8594-7.94922L15.8594-11.9531C15.8594-12.5098 15.4883-12.8809 14.9512-12.8809C14.4336-12.8809 14.0625-12.5 14.0625-11.9531L14.0625-7.94922L10.0586-7.94922C9.50195-7.94922 9.13086-7.56836 9.13086-7.03125C9.13086-6.51367 9.51172-6.14258 10.0586-6.14258Z"/>
  </g>
  <text style="stroke:none;fill:black;font-family:-apple-system,&quot;SF Pro Display&quot;,&quot;SF Pro Text&quot;,Helvetica,sans-serif;font-weight:bold;" transform="matrix(1 0 0 1 263 1953)">Design Variations</text>
  <text style="stroke:none;fill:black;font-family:-apple-system,&quot;SF Pro Display&quot;,&quot;SF Pro Text&quot;,Helvetica,sans-serif;" transform="matrix(1 0 0 1 263 1971)">Symbols are supported in up to nine weights and three scales.</text>
  <text style="stroke:none;fill:black;font-family:-apple-system,&quot;SF Pro Display&quot;,&quot;SF Pro Text&quot;,Helvetica,sans-serif;" transform="matrix(1 0 0 1 263 1989)">For optimal layout with text and other symbols, vertically align</text>
  <text style="stroke:none;fill:black;font-family:-apple-system,&quot;SF Pro Display&quot;,&quot;SF Pro Text&quot;,Helvetica,sans-serif;" transform="matrix(1 0 0 1 263 2007)">symbols with the adjacent text.</text>
  <line id="" style="fill:none;stroke:#00AEEF;stroke-width:0.5;opacity:1.0;" x1="776" x2="776" y1="1919" y2="1933"/>
  <g id="" transform="matrix(1 0 0 1 776 1933)">
   <path d="M3.31055 0.126953C3.82812 0.126953 4.08203-0.0683594 4.26758-0.605469L5.52734-4.0625L11.2891-4.0625L12.5488-0.605469C12.7344-0.0683594 12.9883 0.126953 13.4961 0.126953C14.0137 0.126953 14.3457-0.185547 14.3457-0.673828C14.3457-0.839844 14.3164-0.986328 14.2383-1.20117L9.6582-13.3887C9.43359-13.9941 9.0332-14.2871 8.4082-14.2871C7.80273-14.2871 7.39258-13.9941 7.17773-13.3984L2.59766-1.19141C2.51953-0.976562 2.49023-0.830078 2.49023-0.664062C2.49023-0.175781 2.80273 0.126953 3.31055 0.126953ZM6.00586-5.53711L8.37891-12.1094L8.42773-12.1094L10.8008-5.53711Z"/>
  </g>
  <line id="" style="fill:none;stroke:#00AEEF;stroke-width:0.5;opacity:1.0;" x1="792.836" x2="792.836" y1="1919" y2="1933"/>
  <text style="stroke:none;fill:black;font-family:-apple-system,&quot;SF Pro Display&quot;,&quot;SF Pro Text&quot;,Helvetica,sans-serif;font-weight:bold;" transform="matrix(1 0 0 1 776 1953)">Margins</text>
  <text style="stroke:none;fill:black;font-family:-apple-system,&quot;SF Pro Display&quot;,&quot;SF Pro Text&quot;,Helvetica,sans-serif;" transform="matrix(1 0 0 1 776 1971)">Leading and trailing margins on the left and right side of each symbol</text>
  <text style="stroke:none;fill:black;font-family:-apple-system,&quot;SF Pro Display&quot;,&quot;SF Pro Text&quot;,Helvetica,sans-serif;" transform="matrix(1 0 0 1 776 1989)">can be adjusted by modifying the x-location of the margin guidelines.</text>
  <text style="stroke:none;fill:black;font-family:-apple-system,&quot;SF Pro Display&quot;,&quot;SF Pro Text&quot;,Helvetica,sans-serif;" transform="matrix(1 0 0 1 776 2007)">Modifications are automatically applied proportionally to all</text>
  <text style="stroke:none;fill:black;font-family:-apple-system,&quot;SF Pro Display&quot;,&quot;SF Pro Text&quot;,Helvetica,sans-serif;" transform="matrix(1 0 0 1 776 2025)">scales and weights.</text>
  <g id="" transform="matrix(1 0 0 1 1289 1933)">
   <path d="M2.8418 1.86523L4.54102 3.57422C5.40039 4.44336 6.38672 4.38477 7.31445 3.35938L17.4902-7.85156C17.7539-7.76367 18.0273-7.7832 18.3398-7.8418L19.4043-8.03711L20.0684-7.36328L20.0293-6.80664C19.9902-6.30859 20.1172-5.92773 20.6055-5.44922L21.3672-4.70703C21.8457-4.22852 22.4609-4.19922 22.9297-4.66797L25.8398-7.58789C26.3086-8.05664 26.2891-8.65234 25.8105-9.13086L25.0391-9.89258C24.5605-10.3711 24.1895-10.5273 23.7109-10.4883L23.1348-10.4395L22.4902-11.0742L22.7344-12.1973C22.8613-12.7637 22.7051-13.2031 22.1191-13.7891L19.9219-15.9766C16.582-19.2969 12.1484-19.2188 9.25781-16.3281C8.83789-15.918 8.80859-15.3418 9.04297-14.9512C9.27734-14.5898 9.73633-14.3555 10.3809-14.5215C11.8457-14.8633 13.3691-14.9219 14.7949-13.9844L14.209-12.5293C14.0137-12.0508 13.9844-11.6504 14.1113-11.2891L3.04688-0.898438C2.06055 0.0195312 1.98242 0.996094 2.8418 1.86523ZM10.752-15.957C13.1836-17.7344 16.4746-17.4316 18.7012-15.2051L21.1328-12.793C21.3672-12.5586 21.4062-12.373 21.3379-12.0312L21.0156-10.5469L22.5195-9.0625L23.5059-9.12109C23.7598-9.13086 23.8379-9.11133 24.0332-8.91602L24.6094-8.33984L22.168-5.89844L21.5918-6.47461C21.3965-6.66992 21.3672-6.74805 21.377-7.01172L21.4453-7.98828L19.9512-9.47266L18.4277-9.21875C18.1055-9.15039 17.959-9.17969 17.7148-9.41406L15.7129-11.416C15.459-11.6504 15.4297-11.8164 15.5859-12.1875L16.4648-14.2773C14.9023-15.7324 12.8711-16.3574 10.8398-15.7617C10.6836-15.7227 10.625-15.8496 10.752-15.957ZM5.27344 2.30469L4.10156 1.14258C3.63281 0.683594 3.74023 0.341797 4.14062-0.0195312L14.9512-10.1953L16.416-8.71094L6.42578 2.27539C6.07422 2.67578 5.74219 2.77344 5.27344 2.30469Z"/>
  </g>
  <text style="stroke:none;fill:black;font-family:-apple-system,&quot;SF Pro Display&quot;,&quot;SF Pro Text&quot;,Helvetica,sans-serif;font-weight:bold;" transform="matrix(1 0 0 1 1289 1953)">Exporting</text>
  <text style="stroke:none;fill:black;font-family:-apple-system,&quot;SF Pro Display&quot;,&quot;SF Pro Text&quot;,Helvetica,sans-serif;" transform="matrix(1 0 0 1 1289 1971)">Symbols should be outlined when exporting to ensure the</text>
  <text style="stroke:none;fill:black;font-family:-apple-system,&quot;SF Pro Display&quot;,&quot;SF Pro Text&quot;,Helvetica,sans-serif;" transform="matrix(1 0 0 1 1289 1989)">design is preserved when submitting to Xcode.</text>
  <text id="template-version" style="stroke:none;fill:black;font-family:-apple-system,&quot;SF Pro Display&quot;,&quot;SF Pro Text&quot;,Helvetica,sans-serif;text-anchor:end;" transform="matrix(1 0 0 1 3036 1933)">Template v.2.0</text>
  <text style="stroke:none;fill:black;font-family:-apple-system,&quot;SF Pro Display&quot;,&quot;SF Pro Text&quot;,Helvetica,sans-serif;text-anchor:end;" transform="matrix(1 0 0 1 3036 1951)">Requires Xcode 12 or greater</text>
  <text style="stroke:none;fill:black;font-family:-apple-system,&quot;SF Pro Display&quot;,&quot;SF Pro Text&quot;,Helvetica,sans-serif;text-anchor:end;" transform="matrix(1 0 0 1 3036 1969)">Generated from key.fill</text>
  <text style="stroke:none;fill:black;font-family:-apple-system,&quot;SF Pro Display&quot;,&quot;SF Pro Text&quot;,Helvetica,sans-serif;text-anchor:end;" transform="matrix(1 0 0 1 3036 1987)">Typeset at 100 points</text>
  <text style="stroke:none;fill:black;font-family:-apple-system,&quot;SF Pro Display&quot;,&quot;SF Pro Text&quot;,Helvetica,sans-serif;" transform="matrix(1 0 0 1 263 726)">Small</text>
  <text style="stroke:none;fill:black;font-family:-apple-system,&quot;SF Pro Display&quot;,&quot;SF Pro Text&quot;,Helvetica,sans-serif;" transform="matrix(1 0 0 1 263 1156)">Medium</text>
  <text style="stroke:none;fill:black;font-family:-apple-system,&quot;SF Pro Display&quot;,&quot;SF Pro Text&quot;,Helvetica,sans-serif;" transform="matrix(1 0 0 1 263 1586)">Large</text>
 </g>
 <g id="Guides">
  <g id="H-reference" style="fill:#27AAE1;stroke:none;" transform="matrix(1 0 0 1 339 696)">
   <path d="M0.976562 0L3.66211 0L12.9883-24.4629L45.752-24.4629L55.127 0L57.7637 0L30.6152-70.459L28.125-70.459ZM29.3457-67.1387L29.4434-67.1387L44.873-26.709L13.8672-26.709Z"/>
  </g>
  <line id="Baseline-S" style="fill:none;stroke:#27AAE1;opacity:1;stroke-width:0.5;" x1="263" x2="3036" y1="696" y2="696"/>
  <line id="Capline-S" style="fill:none;stroke:#27AAE1;opacity:1;stroke-width:0.5;" x1="263" x2="3036" y1="625.541" y2="625.541"/>
  <g id="H-reference" style="fill:#27AAE1;stroke:none;" transform="matrix(1 0 0 1 339 1126)">
   <path d="M0.976562 0L3.66211 0L12.9883-24.4629L45.752-24.4629L55.127 0L57.7637 0L30.6152-70.459L28.125-70.459ZM29.3457-67.1387L29.4434-67.1387L44.873-26.709L13.8672-26.709Z"/>
  </g>
  <line id="Baseline-M" style="fill:none;stroke:#27AAE1;opacity:1;stroke-width:0.5;" x1="263" x2="3036" y1="1126" y2="1126"/>
  <line id="Capline-M" style="fill:none;stroke:#27AAE1;opacity:1;stroke-width:0.5;" x1="263" x2="3036" y1="1055.54" y2="1055.54"/>
  <g id="H-reference" style="fill:#27AAE1;stroke:none;" transform="matrix(1 0 0 1 339 1556)">
   <path d="M0.976562 0L3.66211 0L12.9883-24.4629L45.752-24.4629L55.127 0L57.7637 0L30.6152-70.459L28.125-70.459ZM29.3457-67.1387L29.4434-67.1387L44.873-26.709L13.8672-26.709Z"/>
  </g>
  <line id="Baseline-L" style="fill:none;stroke:#27AAE1;opacity:1;stroke-width:0.5;" x1="263" x2="3036" y1="1556" y2="1556"/>
  <line id="Capline-L" style="fill:none;stroke:#27AAE1;opacity:1;stroke-width:0.5;" x1="263" x2="3036" y1="1485.54" y2="1485.54"/>
  <line id="left-margin" style="fill:none;stroke:#00AEEF;stroke-width:0.5;opacity:1.0;" x1="1406.22" x2="1406.22" y1="1030.79" y2="1150.12"/>
  <line id="right-margin" style="fill:none;stroke:#00AEEF;stroke-width:0.5;opacity:1.0;" x1="1493.47" x2="1493.47" y1="1030.79" y2="1150.12"/>
 </g>
 <g id="Symbols">
  <g id="Black-L" transform="matrix(1 0 0 1 2872.9 1556)">
   <path d="M60.498-116.553C35.7422-116.553 16.0645-96.8262 16.0645-72.2168C16.0645-54.9316 25.7812-39.3555 41.3574-32.0312L41.3574 25.6836C41.3574 28.3203 42.2852 31.1523 44.4336 33.1055L56.4941 43.9453C59.0332 46.1426 63.3789 46.4355 66.2109 43.5547L85.8887 23.9258C89.1113 20.7031 89.0137 15.7227 85.791 12.5L77.3438 3.95508L90.3809-9.13086C93.457-12.3047 93.5547-17.2852 90.332-20.5078L78.7109-32.1777C95.6055-41.0645 104.932-55.4688 104.932-72.2168C104.932-96.7285 85.1562-116.553 60.498-116.553ZM60.498-78.9551C54.5898-78.9551 49.707-83.7402 49.707-89.6973C49.707-95.7031 54.541-100.488 60.498-100.488C66.4062-100.488 71.2891-95.6543 71.2891-89.6973C71.2891-83.7402 66.4062-78.9551 60.498-78.9551Z"/>
  </g>
  <g id="Heavy-L" transform="matrix(1 0 0 1 2577.31 1556)">
   <path d="M59.375-115.479C35.2539-115.479 16.0645-96.1914 16.0645-72.2168C16.0645-55.0781 25.8789-39.7461 41.4551-32.7637L41.4551 25.9766C41.4551 28.3203 42.2363 30.7617 44.1406 32.5195L55.8594 43.2617C58.0078 45.2148 61.7676 45.5078 64.2578 43.0176L83.9355 23.3398C86.6699 20.5566 86.6211 16.4062 83.8867 13.623L74.4629 4.19922L88.4277-9.81445C91.0645-12.5 91.1133-16.748 88.3789-19.4824L75.4883-32.4219C93.0176-41.0156 102.686-55.4199 102.686-72.2168C102.686-96.1426 83.3984-115.479 59.375-115.479ZM59.375-77.6855C53.418-77.6855 48.5352-82.5684 48.5352-88.5254C48.5352-94.5801 53.3691-99.3652 59.375-99.3652C65.332-99.3652 70.2148-94.4824 70.2148-88.5254C70.2148-82.5684 65.332-77.6855 59.375-77.6855Z"/>
  </g>
  <g id="Bold-L" transform="matrix(1 0 0 1 2281.85 1556)">
   <path d="M58.1543-114.209C34.7168-114.209 16.0645-95.5566 16.0645-72.2168C16.0645-55.2734 25.9277-40.1367 41.5527-33.5449L41.5527 26.3184C41.5527 28.3691 42.2363 30.3711 43.8477 31.9336L55.0781 42.5293C56.8359 44.1406 60.0098 44.4336 62.0605 42.3828L81.7871 22.6562C83.9844 20.4102 83.9355 17.1387 81.7383 14.8926L71.2402 4.49219L86.3281-10.5957C88.4277-12.7441 88.4277-16.1133 86.2305-18.3105L71.9238-32.7148C90.0879-40.9668 100.195-55.3223 100.195-72.2168C100.195-95.459 81.4453-114.209 58.1543-114.209ZM58.1543-76.3184C52.1484-76.3184 47.2168-81.2012 47.2168-87.207C47.2168-93.3105 52.0508-98.1445 58.1543-98.1445C64.1113-98.1445 69.043-93.2129 69.043-87.207C69.043-81.2012 64.1113-76.3184 58.1543-76.3184Z"/>
  </g>
  <g id="Semibold-L" transform="matrix(1 0 0 1 1985.99 1556)">
   <path d="M57.2754-113.379C34.3262-113.379 16.0645-95.0684 16.0645-72.2656C16.0645-55.3711 25.9766-40.3809 41.6016-34.082L41.6016 26.5137C41.6016 28.3691 42.2363 30.0781 43.6523 31.4941L54.5898 42.041C56.0547 43.457 58.7402 43.7012 60.5469 41.9434L80.2734 22.2168C82.1289 20.3613 82.0801 17.627 80.2734 15.7715L69.043 4.63867L84.8145-11.1328C86.5723-12.8906 86.5723-15.625 84.7168-17.5293L69.4336-32.9102C88.0859-40.918 98.4863-55.2246 98.4863-72.2656C98.4863-94.9707 80.127-113.379 57.2754-113.379ZM57.2754-75.3418C51.2207-75.3418 46.2891-80.2246 46.2891-86.3281C46.2891-92.4316 51.1719-97.2656 57.2754-97.2656C63.2812-97.2656 68.2129-92.334 68.2129-86.3281C68.2129-80.2246 63.2812-75.3418 57.2754-75.3418Z"/>
  </g>
  <g id="Medium-L" transform="matrix(1 0 0 1 1689.94 1556)">
   <path d="M56.5918-112.695C34.0332-112.695 16.0645-94.7266 16.0645-72.2656C16.0645-55.4688 26.0254-40.625 41.6504-34.5215L41.6504 26.709C41.6504 28.3691 42.1875 29.8828 43.5059 31.1523L54.1992 41.6504C55.4688 42.9199 57.8125 43.1641 59.375 41.6504L79.1504 21.875C80.7129 20.2637 80.6641 18.0176 79.1504 16.4551L67.3828 4.78516L83.7402-11.5234C85.1562-13.0371 85.2051-15.332 83.5938-16.8945L67.5293-33.0566C86.5723-40.8691 97.168-55.1758 97.168-72.2656C97.168-94.6289 79.1016-112.695 56.5918-112.695ZM56.5918-74.6094C50.5371-74.6094 45.6055-79.541 45.6055-85.6445C45.6055-91.748 50.4883-96.6309 56.5918-96.6309C62.6465-96.6309 67.627-91.6504 67.627-85.6445C67.627-79.541 62.6465-74.6094 56.5918-74.6094Z"/>
  </g>
  <g id="Regular-L" transform="matrix(1 0 0 1 1394.08 1556)">
   <path d="M55.7617-111.865C33.6914-111.865 16.0645-94.2383 16.0645-72.2656C16.0645-55.5664 26.0742-40.8691 41.6992-35.0586L41.6992 26.9531C41.6992 28.418 42.1875 29.5898 43.3105 30.7617L53.6621 41.1621C54.6875 42.1875 56.6406 42.4805 57.8613 41.2109L77.6367 21.4355C78.8574 20.166 78.8086 18.5059 77.6367 17.334L65.1855 4.98047L82.2754-12.0605C83.3496-13.1836 83.3496-14.8926 82.0801-16.1133L65.0879-33.252C84.5703-40.8691 95.459-55.127 95.459-72.2656C95.459-94.1895 77.7344-111.865 55.7617-111.865ZM55.7617-73.6816C49.6582-73.6816 44.7266-78.6133 44.7266-84.7168C44.7266-90.8691 49.6094-95.8008 55.7617-95.8008C61.8652-95.8008 66.7969-90.7715 66.7969-84.7168C66.7969-78.6133 61.8652-73.6816 55.7617-73.6816Z"/>
  </g>
  <g id="Light-L" transform="matrix(1 0 0 1 1098.1 1556)">
   <path d="M55.0293-110.986C33.3496-110.986 16.0645-93.7012 16.0645-72.1191C16.0645-55.6641 25.9766-41.1621 41.4551-35.498L41.4551 26.2207C41.4551 27.4902 41.8945 28.6133 42.9688 29.7363L53.1738 39.9414C54.1504 40.9668 55.7617 41.1621 56.9336 39.9902L76.4648 20.459C77.4902 19.3848 77.4414 17.9688 76.4648 16.9434L63.8184 4.44336L81.0059-12.6953C81.9336-13.6719 81.9336-15.1367 80.8594-16.2109L63.623-33.5938C83.1055-41.0156 93.9941-55.127 93.9941-72.1191C93.9941-93.6035 76.6113-110.986 55.0293-110.986ZM55.0293-73.1934C49.0234-73.1934 44.1895-78.0762 44.1895-84.082C44.1895-90.0879 48.9746-94.9219 55.0293-94.9219C60.9863-94.9219 65.8203-89.9902 65.8203-84.082C65.8203-78.0762 60.9863-73.1934 55.0293-73.1934Z"/>
  </g>
  <g id="Thin-L" transform="matrix(1 0 0 1 802.394 1556)">
   <path d="M54.0527-109.814C32.9102-109.814 16.0645-92.9688 16.0645-71.9238C16.0645-55.7617 25.8789-41.5039 41.1621-36.084L41.1621 25.2441C41.1621 26.2695 41.5039 27.3926 42.4805 28.3691L52.4414 38.3301C53.418 39.3066 54.6387 39.4043 55.6641 38.4277L74.8535 19.1895C75.6348 18.3105 75.6348 17.2852 74.8535 16.4062L62.0605 3.71094L79.3945-13.5742C80.0781-14.3555 80.0781-15.4785 79.248-16.3574L61.6211-34.0332C81.1523-41.2598 91.9922-55.127 91.9922-71.9238C91.9922-92.8711 75.0977-109.814 54.0527-109.814ZM54.0527-72.6074C48.1934-72.6074 43.5059-77.3438 43.5059-83.2031C43.5059-89.0137 48.1445-93.7012 54.0527-93.7012C59.8633-93.7012 64.5508-88.9648 64.5508-83.2031C64.5508-77.3438 59.8633-72.6074 54.0527-72.6074Z"/>
  </g>
  <g id="Ultralight-L" transform="matrix(1 0 0 1 506.171 1556)">
   <path d="M53.5156-109.229C32.666-109.229 16.0645-92.5781 16.0645-71.8262C16.0645-55.8105 25.8301-41.6992 41.0156-36.377L41.0156 24.707C41.0156 25.6348 41.3086 26.7578 42.2363 27.6855L52.0996 37.5C53.0273 38.4766 54.0527 38.5254 54.9805 37.5977L74.0723 18.5547C74.707 17.7734 74.707 16.8945 74.0723 16.1621L61.1328 3.32031L78.5645-14.0137C79.1504-14.6973 79.1504-15.6738 78.3691-16.4062L60.5957-34.2285C80.1758-41.3574 91.0156-55.127 91.0156-71.8262C91.0156-92.5293 74.3164-109.229 53.5156-109.229ZM53.5156-72.2656C47.8027-72.2656 43.1641-77.002 43.1641-82.7637C43.1641-88.4766 47.7051-93.1152 53.5156-93.1152C59.2773-93.1152 63.916-88.4277 63.916-82.7637C63.916-77.002 59.2773-72.2656 53.5156-72.2656Z"/>
  </g>
  <g id="Black-M" transform="matrix(1 0 0 1 2885.4 1126)">
   <path d="M47.998-99.2676C28.1738-99.2676 12.4512-83.4961 12.4512-63.8184C12.4512-50.3418 19.873-38.0859 31.8359-32.0312L31.8359 11.1816C31.8359 13.4766 32.6172 16.2109 34.5703 17.9199L44.4336 26.3184C46.8262 28.418 50.7812 28.6133 53.4668 25.9277L68.5059 10.8887C71.5332 7.86133 71.4844 3.07617 68.457 0L63.0859-5.46875L71.9238-14.4043C74.9023-17.4316 75-22.2656 71.9238-25.293L64.5508-32.7148C76.8066-39.8926 83.5449-51.0254 83.5449-63.8184C83.5449-83.3984 67.7734-99.2676 47.998-99.2676ZM47.998-70.5078C43.5059-70.5078 39.8438-74.2188 39.8438-78.6621C39.8438-83.2031 43.5059-86.8164 47.998-86.8164C52.4902-86.8164 56.1523-83.1543 56.1523-78.6621C56.1523-74.2188 52.4902-70.5078 47.998-70.5078Z"/>
  </g>
  <g id="Heavy-M" transform="matrix(1 0 0 1 2589.72 1126)">
   <path d="M46.9727-98.291C27.7344-98.291 12.4512-82.959 12.4512-63.8672C12.4512-50.4883 19.9707-38.4277 31.9824-32.666L31.9824 11.6699C31.9824 13.7695 32.666 16.0645 34.375 17.5781L43.7988 25.9277C45.8496 27.7344 49.2676 27.9297 51.5625 25.6348L66.6992 10.498C69.2871 7.91016 69.2383 3.95508 66.6504 1.36719L60.3027-5.07812L70.166-14.9902C72.6562-17.5293 72.7051-21.5332 70.166-24.1211L61.4258-32.8613C74.3652-39.7949 81.4941-50.9277 81.4941-63.8672C81.4941-82.9102 66.1133-98.291 46.9727-98.291ZM46.9727-69.2871C42.4316-69.2871 38.7207-72.998 38.7207-77.5879C38.7207-82.1777 42.4316-85.8398 46.9727-85.8398C51.5137-85.8398 55.2246-82.1289 55.2246-77.5879C55.2246-72.998 51.5137-69.2871 46.9727-69.2871Z"/>
  </g>
  <g id="Bold-M" transform="matrix(1 0 0 1 2294.15 1126)">
   <path d="M45.8008-97.2168C27.2461-97.2168 12.4512-82.373 12.4512-63.916C12.4512-50.6348 20.0684-38.7695 32.1289-33.4473L32.1289 12.2559C32.1289 14.0625 32.7637 15.8691 34.1797 17.1875L43.1641 25.4883C44.7754 26.9531 47.5586 27.1484 49.4141 25.3418L64.6973 10.0586C66.748 8.00781 66.6992 4.93164 64.6484 2.83203L57.1777-4.58984L68.2129-15.6738C70.166-17.627 70.166-20.8008 68.1152-22.8027L57.9102-33.1055C71.582-39.6973 79.1992-50.8301 79.1992-63.916C79.1992-82.3242 64.3555-97.2168 45.8008-97.2168ZM45.8008-67.9199C41.2109-67.9199 37.4023-71.6797 37.4023-76.3184C37.4023-81.0059 41.1621-84.7656 45.8008-84.7656C50.4395-84.7656 54.248-80.957 54.248-76.3184C54.248-71.6797 50.4395-67.9199 45.8008-67.9199Z"/>
  </g>
  <g id="Semibold-M" transform="matrix(1 0 0 1 1998.25 1126)">
   <path d="M45.0195-96.4355C26.9043-96.4355 12.4512-81.9824 12.4512-63.9648C12.4512-50.7812 20.1172-39.0137 32.2754-33.9355L32.2754 12.6953C32.2754 14.2578 32.8125 15.7715 34.0332 16.9434L42.7246 25.1953C43.9941 26.416 46.3867 26.6602 47.9492 25.0977L63.2812 9.76562C64.9902 8.05664 64.9414 5.56641 63.2812 3.90625L55.0293-4.29688L66.8457-16.1133C68.4082-17.7246 68.457-20.2637 66.748-21.9238L55.5176-33.252C69.7266-39.5996 77.5879-50.7812 77.5879-63.9648C77.5879-81.9336 63.0859-96.4355 45.0195-96.4355ZM45.0195-66.9434C40.332-66.9434 36.5234-70.752 36.5234-75.4883C36.5234-80.2246 40.2832-83.9844 45.0195-83.9844C49.707-83.9844 53.5156-80.127 53.5156-75.4883C53.5156-70.752 49.707-66.9434 45.0195-66.9434Z"/>
  </g>
  <g id="Medium-M" transform="matrix(1 0 0 1 1702.15 1126)">
   <path d="M44.4336-95.8984C26.6113-95.8984 12.4512-81.6895 12.4512-63.9648C12.4512-50.8301 20.166-39.209 32.373-34.3262L32.373 12.9883C32.373 14.4043 32.8125 15.6738 33.8867 16.748L42.3828 24.9512C43.457 26.0254 45.5078 26.2695 46.875 24.9023L62.2559 9.52148C63.6719 8.10547 63.623 6.05469 62.2559 4.6875L53.418-4.05273L65.8203-16.4551C67.0898-17.7734 67.1387-19.8242 65.7227-21.2402L53.6621-33.3496C68.2617-39.5508 76.3672-50.7324 76.3672-63.9648C76.3672-81.6406 62.1582-95.8984 44.4336-95.8984ZM44.4336-66.2109C39.6973-66.2109 35.8398-70.0684 35.8398-74.8047C35.8398-79.5898 39.6484-83.3984 44.4336-83.3984C49.1699-83.3984 53.0273-79.541 53.0273-74.8047C53.0273-70.0684 49.1699-66.2109 44.4336-66.2109Z"/>
  </g>
  <g id="Regular-M" transform="matrix(1 0 0 1 1406.22 1126)">
   <path d="M43.6523-95.1172C26.2695-95.1172 12.4512-81.2988 12.4512-64.0137C12.4512-50.9766 20.2637-39.4531 32.4707-34.8145L32.4707 13.3789C32.4707 14.5996 32.8613 15.5273 33.7402 16.4551L41.8945 24.6582C42.7246 25.4883 44.3848 25.7324 45.4102 24.707L60.8887 9.22852C61.9141 8.1543 61.8652 6.73828 60.8887 5.71289L51.2695-3.75977L64.4531-16.8945C65.3809-17.8711 65.3809-19.2871 64.3555-20.3613L51.3184-33.4961C66.4062-39.502 74.8047-50.6348 74.8047-64.0137C74.8047-81.2012 60.8887-95.1172 43.6523-95.1172ZM43.6523-65.2832C38.8672-65.2832 34.9609-69.1406 34.9609-73.9746C34.9609-78.8086 38.7695-82.666 43.6523-82.666C48.4375-82.666 52.3438-78.7598 52.3438-73.9746C52.3438-69.1406 48.4375-65.2832 43.6523-65.2832Z"/>
  </g>
  <g id="Light-M" transform="matrix(1 0 0 1 1110.16 1126)">
   <path d="M42.9688-94.3359C25.9766-94.3359 12.4512-80.8105 12.4512-63.8672C12.4512-51.0254 20.166-39.6973 32.2754-35.2539L32.2754 12.6953C32.2754 13.7695 32.6172 14.6973 33.4473 15.5762L41.4551 23.584C42.1875 24.3652 43.6035 24.5605 44.5312 23.6328L59.8145 8.34961C60.6934 7.42188 60.6445 6.25 59.8145 5.37109L50.0977-4.24805L63.3301-17.4805C64.1602-18.3105 64.1602-19.5312 63.2324-20.459L49.9512-33.7891C65.0879-39.6484 73.4863-50.6348 73.4863-63.8672C73.4863-80.7129 59.8633-94.3359 42.9688-94.3359ZM42.9688-64.8438C38.2812-64.8438 34.4727-68.6523 34.4727-73.3887C34.4727-78.0762 38.2324-81.8848 42.9688-81.8848C47.6562-81.8848 51.4648-78.0273 51.4648-73.3887C51.4648-68.6523 47.6562-64.8438 42.9688-64.8438Z"/>
  </g>
  <g id="Thin-M" transform="matrix(1 0 0 1 814.332 1126)">
   <path d="M42.0898-93.2617C25.5859-93.2617 12.4512-80.127 12.4512-63.7207C12.4512-51.123 20.1172-40.0391 31.9824-35.7422L31.9824 11.8164C31.9824 12.6953 32.2266 13.5742 33.0078 14.3555L40.8203 22.1191C41.5527 22.9004 42.5781 22.998 43.4082 22.168L58.3496 7.22656C59.0332 6.49414 59.0332 5.61523 58.3496 4.88281L48.4863-4.93164L61.8652-18.2617C62.4512-18.8965 62.4512-19.8242 61.7676-20.5566L48.1934-34.1797C63.3301-39.8438 71.7285-50.6348 71.7285-63.7207C71.7285-80.0781 58.5449-93.2617 42.0898-93.2617ZM42.0898-64.3066C37.5488-64.3066 33.8867-68.0176 33.8867-72.6074C33.8867-77.1484 37.5-80.8105 42.0898-80.8105C46.6309-80.8105 50.3418-77.0996 50.3418-72.6074C50.3418-68.0176 46.6309-64.3066 42.0898-64.3066Z"/>
  </g>
  <g id="Ultralight-M" transform="matrix(1 0 0 1 518.061 1126)">
   <path d="M41.6504-92.7246C25.3906-92.7246 12.4512-79.7852 12.4512-63.623C12.4512-51.1719 20.0684-40.1855 31.8359-36.0352L31.8359 11.377C31.8359 12.1094 32.0801 12.9883 32.8125 13.7207L40.4785 21.3867C41.2109 22.1191 42.0898 22.2168 42.8223 21.4355L57.6172 6.64062C58.2031 6.00586 58.2031 5.27344 57.6172 4.6875L47.6562-5.22461L61.1328-18.6523C61.6211-19.1895 61.6211-20.0195 60.9863-20.6055L47.2656-34.4238C62.4023-39.9414 70.8496-50.6348 70.8496-63.623C70.8496-79.7363 57.8125-92.7246 41.6504-92.7246ZM41.6504-64.0137C37.1582-64.0137 33.5449-67.7246 33.5449-72.168C33.5449-76.6602 37.1094-80.2734 41.6504-80.2734C46.1426-80.2734 49.7559-76.6113 49.7559-72.168C49.7559-67.7246 46.1426-64.0137 41.6504-64.0137Z"/>
  </g>
  <g id="Black-S" transform="matrix(1 0 0 1 2895.85 696)">
   <path d="M37.5488-85.3516C22.0703-85.3516 9.76562-72.998 9.76562-57.6172C9.76562-47.0703 15.5762-37.5 24.9512-32.7637L24.9512 1.17188C24.9512 2.97852 25.5859 5.07812 27.0996 6.39648L34.7656 12.9883C36.6211 14.5996 39.6973 14.7461 41.748 12.6953L53.5645 0.878906C55.9082-1.46484 55.8594-5.12695 53.5156-7.51953L49.2188-11.8652L56.25-18.9453C58.5449-21.2891 58.5938-25 56.25-27.3438L50.3418-33.252C60.0098-38.8672 65.332-47.6074 65.332-57.6172C65.332-72.9492 52.9785-85.3516 37.5488-85.3516ZM37.5488-62.793C34.0332-62.793 31.1523-65.6738 31.1523-69.1895C31.1523-72.7539 34.0332-75.5859 37.5488-75.5859C41.0645-75.5859 43.9453-72.7051 43.9453-69.1895C43.9453-65.6738 41.0645-62.793 37.5488-62.793Z"/>
  </g>
  <g id="Heavy-S" transform="matrix(1 0 0 1 2599.85 696)">
   <path d="M36.8164-84.668C21.7773-84.668 9.76562-72.6562 9.76562-57.666C9.76562-47.168 15.6738-37.6953 25.0977-33.252L25.0977 1.66016C25.0977 3.27148 25.6348 5.0293 27.002 6.25L34.375 12.793C35.9375 14.209 38.623 14.3555 40.3809 12.5977L52.2949 0.683594C54.2969-1.31836 54.248-4.39453 52.2461-6.44531L47.2168-11.5234L55.0293-19.3359C56.9824-21.3379 56.9824-24.4629 54.9805-26.4648L48.0957-33.3496C58.3008-38.7695 63.916-47.5586 63.916-57.666C63.916-72.6074 51.8555-84.668 36.8164-84.668ZM36.8164-61.9141C33.252-61.9141 30.3223-64.7949 30.3223-68.4082C30.3223-72.0215 33.252-74.9023 36.8164-74.9023C40.4297-74.9023 43.3594-71.9727 43.3594-68.4082C43.3594-64.7949 40.4297-61.9141 36.8164-61.9141Z"/>
  </g>
  <g id="Bold-S" transform="matrix(1 0 0 1 2303.94 696)">
   <path d="M36.0352-83.9355C21.4355-83.9355 9.76562-72.2656 9.76562-57.7148C9.76562-47.3145 15.7227-37.9395 25.2441-33.7402L25.2441 2.14844C25.2441 3.61328 25.7324 5.0293 26.8555 6.05469L33.9355 12.5977C35.1562 13.7207 37.4023 13.916 38.8672 12.4512L50.8789 0.439453C52.5391-1.17188 52.4902-3.61328 50.8789-5.27344L45.0195-11.084L53.6621-19.7754C55.2246-21.3379 55.2246-23.8281 53.6133-25.4395L45.6055-33.4961C56.3477-38.6719 62.3047-47.4609 62.3047-57.7148C62.3047-72.2168 50.5859-83.9355 36.0352-83.9355ZM36.0352-60.8887C32.373-60.8887 29.3945-63.8672 29.3945-67.5293C29.3945-71.2402 32.373-74.1699 36.0352-74.1699C39.6973-74.1699 42.6758-71.1914 42.6758-67.5293C42.6758-63.8672 39.6973-60.8887 36.0352-60.8887Z"/>
  </g>
  <g id="Semibold-S" transform="matrix(1 0 0 1 2007.79 696)">
   <path d="M35.498-83.4473C21.1914-83.4473 9.76562-72.0215 9.76562-57.7637C9.76562-47.3633 15.8203-38.1348 25.3418-34.082L25.3418 2.53906C25.3418 3.80859 25.7812 4.98047 26.7578 5.95703L33.5938 12.4512C34.6191 13.4277 36.5723 13.623 37.8418 12.4023L49.9023 0.292969C51.2695-1.07422 51.2207-3.07617 49.9023-4.44336L43.457-10.8398L52.6855-20.0684C54.0039-21.3867 54.0039-23.3887 52.6367-24.7559L43.8965-33.5938C55.0293-38.623 61.1816-47.4121 61.1816-57.7637C61.1816-71.9727 49.7559-83.4473 35.498-83.4473ZM35.498-60.2051C31.7871-60.2051 28.7598-63.1836 28.7598-66.9434C28.7598-70.7031 31.7383-73.6816 35.498-73.6816C39.209-73.6816 42.2363-70.6543 42.2363-66.9434C42.2363-63.1836 39.209-60.2051 35.498-60.2051Z"/>
  </g>
  <g id="Medium-S" transform="matrix(1 0 0 1 1711.5 696)">
   <path d="M35.0586-83.0566C20.9961-83.0566 9.76562-71.8262 9.76562-57.8125C9.76562-47.4609 15.8691-38.2324 25.4395-34.375L25.4395 2.83203C25.4395 4.00391 25.8301 4.98047 26.709 5.85938L33.3984 12.3535C34.2285 13.1836 35.9375 13.3789 37.0117 12.3047L49.1699 0.146484C50.3418-0.976562 50.293-2.68555 49.1699-3.80859L42.2852-10.5957L52.002-20.3125C53.0762-21.3867 53.0762-23.0469 51.9043-24.2188L42.5781-33.6426C54.0039-38.5742 60.3516-47.3633 60.3516-57.8125C60.3516-71.7773 49.0723-83.0566 35.0586-83.0566ZM35.0586-59.668C31.2988-59.668 28.2715-62.6953 28.2715-66.4551C28.2715-70.2637 31.2988-73.291 35.0586-73.291C38.8184-73.291 41.8945-70.2148 41.8945-66.4551C41.8945-62.6953 38.8184-59.668 35.0586-59.668Z"/>
  </g>
  <g id="Regular-S" transform="matrix(1 0 0 1 1415.32 696)">
   <path d="M34.5215-82.5195C20.752-82.5195 9.76562-71.5332 9.76562-57.8613C9.76562-47.5098 15.918-38.4277 25.5371-34.7168L25.5371 3.17383C25.5371 4.19922 25.8789 4.93164 26.6113 5.71289L33.0566 12.2559C33.6914 12.8418 35.1562 13.0859 35.9863 12.2559L48.2422 0C49.1211-0.878906 49.0723-2.14844 48.2422-2.97852L40.7715-10.3516L51.0254-20.6055C51.8555-21.3867 51.8555-22.6562 50.9277-23.5352L40.8691-33.7402C52.6855-38.4766 59.2773-47.3145 59.2773-57.8613C59.2773-71.4844 48.2422-82.5195 34.5215-82.5195ZM34.5215-58.9844C30.7129-58.9844 27.6367-62.0117 27.6367-65.8691C27.6367-69.7266 30.6641-72.7539 34.5215-72.7539C38.3301-72.7539 41.4062-69.6777 41.4062-65.8691C41.4062-62.0117 38.3301-58.9844 34.5215-58.9844Z"/>
  </g>
  <g id="Light-S" transform="matrix(1 0 0 1 1119.2 696)">
   <path d="M33.9355-81.8359C20.5078-81.8359 9.76562-71.0938 9.76562-57.7148C9.76562-47.5586 15.8691-38.623 25.3418-35.0586L25.3418 2.58789C25.3418 3.4668 25.6348 4.19922 26.3184 4.93164L32.666 11.2793C33.252 11.8652 34.4727 12.0605 35.2539 11.2793L47.2656-0.732422C48.0469-1.51367 47.998-2.53906 47.2656-3.27148L39.6973-10.791L50.0488-21.0938C50.7324-21.8262 50.7324-22.8516 49.9512-23.6328L39.6484-33.9844C51.5137-38.623 58.1055-47.3145 58.1055-57.7148C58.1055-71.0449 47.3145-81.8359 33.9355-81.8359ZM33.9355-58.5938C30.2246-58.5938 27.1973-61.6211 27.1973-65.332C27.1973-69.0918 30.1758-72.0703 33.9355-72.0703C37.6465-72.0703 40.6738-69.043 40.6738-65.332C40.6738-61.6211 37.6465-58.5938 33.9355-58.5938Z"/>
  </g>
  <g id="Thin-S" transform="matrix(1 0 0 1 823.268 696)">
   <path d="M33.1543-80.9082C20.166-80.9082 9.76562-70.5566 9.76562-57.5684C9.76562-47.6562 15.7715-38.916 25.0977-35.5469L25.0977 1.80664C25.0977 2.53906 25.3418 3.22266 25.9766 3.85742L32.0801 10.0098C32.7148 10.5957 33.5938 10.6934 34.2285 10.0098L45.9961-1.75781C46.582-2.34375 46.582-3.125 45.9961-3.71094L38.2812-11.3281L48.7793-21.7773C49.2676-22.3145 49.2676-23.0957 48.6816-23.7305L38.0859-34.3262C49.9512-38.8184 56.543-47.3145 56.543-57.5684C56.543-70.5078 46.1426-80.9082 33.1543-80.9082ZM33.1543-58.1055C29.5898-58.1055 26.6602-61.0352 26.6602-64.6484C26.6602-68.2617 29.541-71.1426 33.1543-71.1426C36.7676-71.1426 39.6484-68.2129 39.6484-64.6484C39.6484-61.0352 36.7676-58.1055 33.1543-58.1055Z"/>
  </g>
  <g id="Ultralight-S" transform="matrix(1 0 0 1 526.947 696)">
   <path d="M32.7637-80.4199C19.9707-80.4199 9.76562-70.2148 9.76562-57.4707C9.76562-47.7051 15.7227-39.0625 25-35.791L25 1.41602C25 2.00195 25.1953 2.68555 25.7812 3.32031L31.7871 9.32617C32.373 9.91211 33.1055 9.96094 33.6914 9.375L45.3613-2.29492C45.8496-2.7832 45.8008-3.41797 45.3613-3.90625L37.5488-11.6699L48.0957-22.1191C48.5352-22.6074 48.5352-23.2422 47.998-23.7793L37.3047-34.5215C49.1699-38.916 55.7617-47.3145 55.7617-57.4707C55.7617-70.166 45.5078-80.4199 32.7637-80.4199ZM32.7637-57.8613C29.248-57.8613 26.3672-60.7422 26.3672-64.3066C26.3672-67.8223 29.1992-70.6543 32.7637-70.6543C36.2793-70.6543 39.1113-67.7734 39.1113-64.3066C39.1113-60.7422 36.2793-57.8613 32.7637-57.8613Z"/>
  </g>
 </g>
</svg>
